<svg width="393" height="87" viewBox="0 0 393 87" fill="none" xmlns="http://www.w3.org/2000/svg">
<rect width="94" height="36" rx="18" fill="white"/>
<path d="M27.112 15.72L29.002 21.208L30.92 15.72H32.684L29.786 23H28.148L25.264 15.72H27.112ZM35.3293 13.004V14.586H33.6773V13.004H35.3293ZM35.3013 15.72V23H33.7052V15.72H35.3013ZM42.2746 19.206C42.2746 18.7487 42.2232 18.366 42.1206 18.058C42.0272 17.7407 41.8919 17.4933 41.7146 17.316C41.5466 17.1293 41.3459 16.9987 41.1126 16.924C40.8886 16.84 40.6506 16.798 40.3986 16.798C39.8106 16.798 39.3532 17.008 39.0266 17.428C38.7092 17.848 38.5506 18.4873 38.5506 19.346C38.5506 19.8127 38.5926 20.2093 38.6766 20.536C38.7699 20.8627 38.8959 21.1287 39.0546 21.334C39.2226 21.5393 39.4139 21.6887 39.6286 21.782C39.8432 21.8753 40.0766 21.922 40.3286 21.922C40.9072 21.922 41.3739 21.7353 41.7286 21.362C42.0926 20.9793 42.2746 20.3867 42.2746 19.584V19.206ZM42.2886 21.992C41.9899 22.4027 41.6492 22.7107 41.2666 22.916C40.8932 23.1213 40.4546 23.224 39.9506 23.224C39.4279 23.224 38.9752 23.1307 38.5926 22.944C38.2099 22.7573 37.8926 22.496 37.6406 22.16C37.3886 21.8147 37.1972 21.4087 37.0666 20.942C36.9452 20.466 36.8846 19.9433 36.8846 19.374C36.8846 18.842 36.9499 18.3473 37.0806 17.89C37.2112 17.4233 37.4026 17.022 37.6546 16.686C37.9066 16.3407 38.2146 16.0653 38.5786 15.86C38.9519 15.6547 39.3812 15.5427 39.8666 15.524C39.9599 15.5147 40.0532 15.5147 40.1466 15.524C40.2399 15.524 40.3379 15.5287 40.4406 15.538C40.7672 15.5753 41.0799 15.6687 41.3786 15.818C41.6866 15.958 41.9806 16.196 42.2606 16.532V13.004H43.8426V23H42.2886V21.992ZM52.1358 20.844C52.0051 21.6 51.6831 22.188 51.1698 22.608C50.6565 23.0187 49.9191 23.224 48.9578 23.224C47.8005 23.224 46.9185 22.8927 46.3118 22.23C45.7145 21.558 45.4158 20.6153 45.4158 19.402C45.4158 18.7767 45.4998 18.2213 45.6678 17.736C45.8451 17.2507 46.0878 16.8447 46.3958 16.518C46.7131 16.182 47.0865 15.93 47.5158 15.762C47.9545 15.5847 48.4351 15.496 48.9578 15.496C49.5178 15.496 50.0031 15.5847 50.4138 15.762C50.8245 15.93 51.1651 16.1727 51.4358 16.49C51.7065 16.798 51.9071 17.1713 52.0378 17.61C52.1685 18.0393 52.2338 18.52 52.2338 19.052V19.752H47.0118C47.0305 20.4147 47.1985 20.9513 47.5158 21.362C47.8331 21.7727 48.3138 21.978 48.9578 21.978C49.4618 21.978 49.8398 21.88 50.0918 21.684C50.3438 21.488 50.5118 21.208 50.5958 20.844H52.1358ZM50.6798 18.646C50.6798 18.0487 50.5398 17.5773 50.2598 17.232C49.9798 16.8867 49.5318 16.714 48.9158 16.714C48.3278 16.714 47.8798 16.8913 47.5718 17.246C47.2638 17.5913 47.0865 18.058 47.0398 18.646H50.6798ZM57.1349 21.936C57.8069 21.936 58.2969 21.7073 58.6049 21.25C58.9222 20.7833 59.0809 20.1487 59.0809 19.346C59.0809 18.5527 58.9222 17.9273 58.6049 17.47C58.2969 17.0127 57.8069 16.784 57.1349 16.784C56.4629 16.784 55.9682 17.0173 55.6509 17.484C55.3429 17.9413 55.1889 18.562 55.1889 19.346C55.1889 20.1393 55.3382 20.7693 55.6369 21.236C55.9449 21.7027 56.4442 21.936 57.1349 21.936ZM57.1209 23.224C55.9822 23.224 55.1002 22.888 54.4749 22.216C53.8496 21.544 53.5369 20.592 53.5369 19.36C53.5369 18.7813 53.6162 18.254 53.7749 17.778C53.9429 17.302 54.1809 16.896 54.4889 16.56C54.7969 16.224 55.1749 15.9627 55.6229 15.776C56.0709 15.5893 56.5796 15.496 57.1489 15.496C57.7276 15.496 58.2409 15.594 58.6889 15.79C59.1369 15.9767 59.5102 16.238 59.8089 16.574C60.1169 16.91 60.3456 17.316 60.4949 17.792C60.6536 18.2587 60.7329 18.772 60.7329 19.332C60.7329 19.9667 60.6442 20.5267 60.4669 21.012C60.2896 21.488 60.0376 21.894 59.7109 22.23C59.3936 22.5567 59.0156 22.804 58.5769 22.972C58.1382 23.14 57.6529 23.224 57.1209 23.224ZM63.4122 20.774C63.4402 21.0167 63.5055 21.2173 63.6082 21.376C63.7108 21.5253 63.8368 21.6467 63.9862 21.74C64.1448 21.8333 64.3268 21.8987 64.5322 21.936C64.7375 21.964 64.9568 21.978 65.1902 21.978C65.7222 21.978 66.1048 21.8987 66.3382 21.74C66.5715 21.5813 66.6882 21.348 66.6882 21.04C66.6882 20.7973 66.6135 20.592 66.4642 20.424C66.3242 20.256 66.0302 20.1347 65.5822 20.06C65.0035 19.9573 64.4948 19.8593 64.0562 19.766C63.6175 19.6727 63.2488 19.5467 62.9502 19.388C62.6515 19.22 62.4275 19.01 62.2782 18.758C62.1288 18.4967 62.0542 18.1467 62.0542 17.708C62.0542 17.372 62.1288 17.0687 62.2782 16.798C62.4275 16.518 62.6328 16.2847 62.8942 16.098C63.1648 15.902 63.4822 15.7527 63.8462 15.65C64.2195 15.5473 64.6255 15.496 65.0642 15.496C65.6242 15.496 66.0908 15.552 66.4642 15.664C66.8375 15.776 67.1408 15.93 67.3742 16.126C67.6075 16.322 67.7848 16.546 67.9062 16.798C68.0275 17.05 68.1208 17.316 68.1862 17.596L66.7582 17.792C66.6462 17.428 66.4735 17.1573 66.2402 16.98C66.0162 16.8027 65.6382 16.714 65.1062 16.714C64.7982 16.714 64.5462 16.742 64.3502 16.798C64.1542 16.854 63.9955 16.924 63.8742 17.008C63.7622 17.092 63.6828 17.1853 63.6362 17.288C63.5988 17.3907 63.5802 17.4933 63.5802 17.596C63.5802 17.7547 63.5988 17.8853 63.6362 17.988C63.6735 18.0907 63.7388 18.1747 63.8322 18.24C63.9348 18.3053 64.0702 18.3613 64.2382 18.408C64.4062 18.4547 64.6162 18.5013 64.8682 18.548L65.7782 18.702C66.2635 18.786 66.6648 18.8933 66.9822 19.024C67.3088 19.1547 67.5655 19.318 67.7522 19.514C67.9482 19.7007 68.0835 19.92 68.1582 20.172C68.2328 20.424 68.2702 20.704 68.2702 21.012C68.2702 21.6747 68.0182 22.2113 67.5142 22.622C67.0102 23.0233 66.2448 23.224 65.2182 23.224C64.7982 23.224 64.3922 23.182 64.0002 23.098C63.6175 23.0233 63.2722 22.8927 62.9642 22.706C62.6562 22.5193 62.4042 22.272 62.2082 21.964C62.0215 21.6467 61.9142 21.25 61.8862 20.774H63.4122Z" fill="#241E12"/>
<rect x="109" width="172" height="36" rx="18" fill="white"/>
<path d="M137.91 19.598C137.919 20.0647 137.975 20.4473 138.078 20.746C138.19 21.0447 138.33 21.2827 138.498 21.46C138.675 21.6373 138.876 21.7587 139.1 21.824C139.324 21.8893 139.557 21.922 139.8 21.922C140.061 21.922 140.304 21.8753 140.528 21.782C140.752 21.6887 140.948 21.544 141.116 21.348C141.284 21.1427 141.414 20.8767 141.508 20.55C141.601 20.2233 141.648 19.822 141.648 19.346C141.648 18.8887 141.596 18.5013 141.494 18.184C141.4 17.8573 141.274 17.596 141.116 17.4C140.957 17.1947 140.766 17.0453 140.542 16.952C140.327 16.8587 140.103 16.812 139.87 16.812C139.524 16.812 139.226 16.868 138.974 16.98C138.731 17.092 138.53 17.2507 138.372 17.456C138.213 17.6613 138.096 17.9087 138.022 18.198C137.947 18.478 137.91 18.7907 137.91 19.136V19.486V19.598ZM137.924 13.004V16.672C138.213 16.2893 138.544 16 138.918 15.804C139.3 15.5987 139.744 15.496 140.248 15.496C140.77 15.496 141.223 15.5893 141.606 15.776C141.988 15.9627 142.306 16.224 142.558 16.56C142.81 16.896 142.996 17.302 143.118 17.778C143.248 18.2447 143.314 18.7627 143.314 19.332C143.314 19.9293 143.239 20.4707 143.09 20.956C142.94 21.432 142.726 21.838 142.446 22.174C142.166 22.51 141.83 22.7713 141.438 22.958C141.046 23.1353 140.607 23.224 140.122 23.224C139.683 23.224 139.277 23.14 138.904 22.972C138.53 22.804 138.19 22.524 137.882 22.132V23H136.342V13.004H137.924ZM151.218 20.844C151.087 21.6 150.765 22.188 150.252 22.608C149.739 23.0187 149.001 23.224 148.04 23.224C146.883 23.224 146.001 22.8927 145.394 22.23C144.797 21.558 144.498 20.6153 144.498 19.402C144.498 18.7767 144.582 18.2213 144.75 17.736C144.927 17.2507 145.17 16.8447 145.478 16.518C145.795 16.182 146.169 15.93 146.598 15.762C147.037 15.5847 147.517 15.496 148.04 15.496C148.6 15.496 149.085 15.5847 149.496 15.762C149.907 15.93 150.247 16.1727 150.518 16.49C150.789 16.798 150.989 17.1713 151.12 17.61C151.251 18.0393 151.316 18.52 151.316 19.052V19.752H146.094C146.113 20.4147 146.281 20.9513 146.598 21.362C146.915 21.7727 147.396 21.978 148.04 21.978C148.544 21.978 148.922 21.88 149.174 21.684C149.426 21.488 149.594 21.208 149.678 20.844H151.218ZM149.762 18.646C149.762 18.0487 149.622 17.5773 149.342 17.232C149.062 16.8867 148.614 16.714 147.998 16.714C147.41 16.714 146.962 16.8913 146.654 17.246C146.346 17.5913 146.169 18.058 146.122 18.646H149.762ZM154.453 13.004V16.728C154.761 16.308 155.116 16 155.517 15.804C155.928 15.5987 156.362 15.496 156.819 15.496C158.443 15.496 159.255 16.392 159.255 18.184V23H157.659V18.436C157.659 17.848 157.552 17.4373 157.337 17.204C157.122 16.9613 156.805 16.84 156.385 16.84C156.096 16.84 155.83 16.8913 155.587 16.994C155.354 17.0967 155.153 17.232 154.985 17.4C154.817 17.568 154.686 17.764 154.593 17.988C154.5 18.2027 154.453 18.4267 154.453 18.66V23H152.871V13.004H154.453ZM162.644 13.004V14.586H160.992V13.004H162.644ZM162.616 15.72V23H161.02V15.72H162.616ZM165.991 15.72V16.784C166.318 16.336 166.682 16.0093 167.083 15.804C167.494 15.5987 167.932 15.496 168.399 15.496C170.023 15.496 170.835 16.392 170.835 18.184V23H169.239V18.436C169.239 17.848 169.132 17.4373 168.917 17.204C168.702 16.9613 168.385 16.84 167.965 16.84C167.685 16.84 167.424 16.8913 167.181 16.994C166.948 17.0873 166.747 17.218 166.579 17.386C166.411 17.554 166.276 17.75 166.173 17.974C166.08 18.1887 166.033 18.4173 166.033 18.66V23H164.451V15.72H165.991ZM177.724 19.206C177.724 18.7487 177.672 18.366 177.57 18.058C177.476 17.7407 177.341 17.4933 177.164 17.316C176.996 17.1293 176.795 16.9987 176.562 16.924C176.338 16.84 176.1 16.798 175.848 16.798C175.26 16.798 174.802 17.008 174.476 17.428C174.158 17.848 174 18.4873 174 19.346C174 19.8127 174.042 20.2093 174.126 20.536C174.219 20.8627 174.345 21.1287 174.504 21.334C174.672 21.5393 174.863 21.6887 175.078 21.782C175.292 21.8753 175.526 21.922 175.778 21.922C176.356 21.922 176.823 21.7353 177.178 21.362C177.542 20.9793 177.724 20.3867 177.724 19.584V19.206ZM177.738 21.992C177.439 22.4027 177.098 22.7107 176.716 22.916C176.342 23.1213 175.904 23.224 175.4 23.224C174.877 23.224 174.424 23.1307 174.042 22.944C173.659 22.7573 173.342 22.496 173.09 22.16C172.838 21.8147 172.646 21.4087 172.516 20.942C172.394 20.466 172.334 19.9433 172.334 19.374C172.334 18.842 172.399 18.3473 172.53 17.89C172.66 17.4233 172.852 17.022 173.104 16.686C173.356 16.3407 173.664 16.0653 174.028 15.86C174.401 15.6547 174.83 15.5427 175.316 15.524C175.409 15.5147 175.502 15.5147 175.596 15.524C175.689 15.524 175.787 15.5287 175.89 15.538C176.216 15.5753 176.529 15.6687 176.828 15.818C177.136 15.958 177.43 16.196 177.71 16.532V13.004H179.292V23H177.738V21.992ZM183.52 16.98V15.72H184.668V13.76H186.25V15.72H188.056V16.98H186.25V20.788C186.25 21.1613 186.325 21.432 186.474 21.6C186.633 21.768 186.862 21.852 187.16 21.852C187.319 21.852 187.468 21.8427 187.608 21.824C187.758 21.8053 187.902 21.7727 188.042 21.726L188.28 22.916C187.832 23.0653 187.347 23.14 186.824 23.14C186.022 23.14 185.462 22.9347 185.144 22.524C184.827 22.104 184.668 21.4787 184.668 20.648V16.98H183.52ZM190.902 13.004V16.728C191.21 16.308 191.565 16 191.966 15.804C192.377 15.5987 192.811 15.496 193.268 15.496C194.892 15.496 195.704 16.392 195.704 18.184V23H194.108V18.436C194.108 17.848 194.001 17.4373 193.786 17.204C193.571 16.9613 193.254 16.84 192.834 16.84C192.545 16.84 192.279 16.8913 192.036 16.994C191.803 17.0967 191.602 17.232 191.434 17.4C191.266 17.568 191.135 17.764 191.042 17.988C190.949 18.2027 190.902 18.4267 190.902 18.66V23H189.32V13.004H190.902ZM203.923 20.844C203.792 21.6 203.47 22.188 202.957 22.608C202.444 23.0187 201.706 23.224 200.745 23.224C199.588 23.224 198.706 22.8927 198.099 22.23C197.502 21.558 197.203 20.6153 197.203 19.402C197.203 18.7767 197.287 18.2213 197.455 17.736C197.632 17.2507 197.875 16.8447 198.183 16.518C198.5 16.182 198.874 15.93 199.303 15.762C199.742 15.5847 200.222 15.496 200.745 15.496C201.305 15.496 201.79 15.5847 202.201 15.762C202.612 15.93 202.952 16.1727 203.223 16.49C203.494 16.798 203.694 17.1713 203.825 17.61C203.956 18.0393 204.021 18.52 204.021 19.052V19.752H198.799C198.818 20.4147 198.986 20.9513 199.303 21.362C199.62 21.7727 200.101 21.978 200.745 21.978C201.249 21.978 201.627 21.88 201.879 21.684C202.131 21.488 202.299 21.208 202.383 20.844H203.923ZM202.467 18.646C202.467 18.0487 202.327 17.5773 202.047 17.232C201.767 16.8867 201.319 16.714 200.703 16.714C200.115 16.714 199.667 16.8913 199.359 17.246C199.051 17.5913 198.874 18.058 198.827 18.646H202.467ZM209.785 20.774C209.813 21.0167 209.879 21.2173 209.981 21.376C210.084 21.5253 210.21 21.6467 210.359 21.74C210.518 21.8333 210.7 21.8987 210.905 21.936C211.111 21.964 211.33 21.978 211.563 21.978C212.095 21.978 212.478 21.8987 212.711 21.74C212.945 21.5813 213.061 21.348 213.061 21.04C213.061 20.7973 212.987 20.592 212.837 20.424C212.697 20.256 212.403 20.1347 211.955 20.06C211.377 19.9573 210.868 19.8593 210.429 19.766C209.991 19.6727 209.622 19.5467 209.323 19.388C209.025 19.22 208.801 19.01 208.651 18.758C208.502 18.4967 208.427 18.1467 208.427 17.708C208.427 17.372 208.502 17.0687 208.651 16.798C208.801 16.518 209.006 16.2847 209.267 16.098C209.538 15.902 209.855 15.7527 210.219 15.65C210.593 15.5473 210.999 15.496 211.437 15.496C211.997 15.496 212.464 15.552 212.837 15.664C213.211 15.776 213.514 15.93 213.747 16.126C213.981 16.322 214.158 16.546 214.279 16.798C214.401 17.05 214.494 17.316 214.559 17.596L213.131 17.792C213.019 17.428 212.847 17.1573 212.613 16.98C212.389 16.8027 212.011 16.714 211.479 16.714C211.171 16.714 210.919 16.742 210.723 16.798C210.527 16.854 210.369 16.924 210.247 17.008C210.135 17.092 210.056 17.1853 210.009 17.288C209.972 17.3907 209.953 17.4933 209.953 17.596C209.953 17.7547 209.972 17.8853 210.009 17.988C210.047 18.0907 210.112 18.1747 210.205 18.24C210.308 18.3053 210.443 18.3613 210.611 18.408C210.779 18.4547 210.989 18.5013 211.241 18.548L212.151 18.702C212.637 18.786 213.038 18.8933 213.355 19.024C213.682 19.1547 213.939 19.318 214.125 19.514C214.321 19.7007 214.457 19.92 214.531 20.172C214.606 20.424 214.643 20.704 214.643 21.012C214.643 21.6747 214.391 22.2113 213.887 22.622C213.383 23.0233 212.618 23.224 211.591 23.224C211.171 23.224 210.765 23.182 210.373 23.098C209.991 23.0233 209.645 22.8927 209.337 22.706C209.029 22.5193 208.777 22.272 208.581 21.964C208.395 21.6467 208.287 21.25 208.259 20.774H209.785ZM222.392 20.452C222.299 21.32 221.986 22.0013 221.454 22.496C220.932 22.9813 220.18 23.224 219.2 23.224C218.612 23.224 218.099 23.1353 217.66 22.958C217.231 22.7713 216.872 22.51 216.582 22.174C216.293 21.838 216.078 21.4367 215.938 20.97C215.798 20.494 215.728 19.9667 215.728 19.388C215.728 18.8093 215.808 18.282 215.966 17.806C216.125 17.3207 216.354 16.91 216.652 16.574C216.96 16.2287 217.334 15.9627 217.772 15.776C218.211 15.5893 218.71 15.496 219.27 15.496C219.784 15.496 220.218 15.566 220.572 15.706C220.927 15.8367 221.221 16.0187 221.454 16.252C221.688 16.476 221.87 16.7373 222 17.036C222.131 17.3347 222.224 17.6473 222.28 17.974L220.698 18.212C220.624 17.8013 220.479 17.4607 220.264 17.19C220.059 16.9193 219.709 16.784 219.214 16.784C218.86 16.784 218.566 16.8587 218.332 17.008C218.099 17.1573 217.912 17.3533 217.772 17.596C217.632 17.8293 217.53 18.1 217.464 18.408C217.408 18.716 217.38 19.0287 217.38 19.346C217.38 19.71 217.413 20.0507 217.478 20.368C217.544 20.6853 217.646 20.9607 217.786 21.194C217.926 21.418 218.113 21.6 218.346 21.74C218.58 21.8707 218.864 21.936 219.2 21.936C219.686 21.936 220.054 21.81 220.306 21.558C220.558 21.2967 220.717 20.928 220.782 20.452H222.392ZM230.146 20.844C230.015 21.6 229.693 22.188 229.18 22.608C228.666 23.0187 227.929 23.224 226.968 23.224C225.81 23.224 224.928 22.8927 224.322 22.23C223.724 21.558 223.426 20.6153 223.426 19.402C223.426 18.7767 223.51 18.2213 223.678 17.736C223.855 17.2507 224.098 16.8447 224.406 16.518C224.723 16.182 225.096 15.93 225.526 15.762C225.964 15.5847 226.445 15.496 226.968 15.496C227.528 15.496 228.013 15.5847 228.424 15.762C228.834 15.93 229.175 16.1727 229.446 16.49C229.716 16.798 229.917 17.1713 230.048 17.61C230.178 18.0393 230.244 18.52 230.244 19.052V19.752H225.022C225.04 20.4147 225.208 20.9513 225.526 21.362C225.843 21.7727 226.324 21.978 226.968 21.978C227.472 21.978 227.85 21.88 228.102 21.684C228.354 21.488 228.522 21.208 228.606 20.844H230.146ZM228.69 18.646C228.69 18.0487 228.55 17.5773 228.27 17.232C227.99 16.8867 227.542 16.714 226.926 16.714C226.338 16.714 225.89 16.8913 225.582 17.246C225.274 17.5913 225.096 18.058 225.05 18.646H228.69ZM233.339 15.72V16.784C233.665 16.336 234.029 16.0093 234.431 15.804C234.841 15.5987 235.28 15.496 235.747 15.496C237.371 15.496 238.183 16.392 238.183 18.184V23H236.587V18.436C236.587 17.848 236.479 17.4373 236.265 17.204C236.05 16.9613 235.733 16.84 235.313 16.84C235.033 16.84 234.771 16.8913 234.529 16.994C234.295 17.0873 234.095 17.218 233.927 17.386C233.759 17.554 233.623 17.75 233.521 17.974C233.427 18.1887 233.381 18.4173 233.381 18.66V23H231.799V15.72H233.339ZM246.401 20.844C246.271 21.6 245.949 22.188 245.435 22.608C244.922 23.0187 244.185 23.224 243.223 23.224C242.066 23.224 241.184 22.8927 240.577 22.23C239.98 21.558 239.681 20.6153 239.681 19.402C239.681 18.7767 239.765 18.2213 239.933 17.736C240.111 17.2507 240.353 16.8447 240.661 16.518C240.979 16.182 241.352 15.93 241.781 15.762C242.22 15.5847 242.701 15.496 243.223 15.496C243.783 15.496 244.269 15.5847 244.679 15.762C245.09 15.93 245.431 16.1727 245.701 16.49C245.972 16.798 246.173 17.1713 246.303 17.61C246.434 18.0393 246.499 18.52 246.499 19.052V19.752H241.277C241.296 20.4147 241.464 20.9513 241.781 21.362C242.099 21.7727 242.579 21.978 243.223 21.978C243.727 21.978 244.105 21.88 244.357 21.684C244.609 21.488 244.777 21.208 244.861 20.844H246.401ZM244.945 18.646C244.945 18.0487 244.805 17.5773 244.525 17.232C244.245 16.8867 243.797 16.714 243.181 16.714C242.593 16.714 242.145 16.8913 241.837 17.246C241.529 17.5913 241.352 18.058 241.305 18.646H244.945ZM249.147 20.774C249.175 21.0167 249.24 21.2173 249.343 21.376C249.445 21.5253 249.571 21.6467 249.721 21.74C249.879 21.8333 250.061 21.8987 250.267 21.936C250.472 21.964 250.691 21.978 250.925 21.978C251.457 21.978 251.839 21.8987 252.073 21.74C252.306 21.5813 252.423 21.348 252.423 21.04C252.423 20.7973 252.348 20.592 252.199 20.424C252.059 20.256 251.765 20.1347 251.317 20.06C250.738 19.9573 250.229 19.8593 249.791 19.766C249.352 19.6727 248.983 19.5467 248.685 19.388C248.386 19.22 248.162 19.01 248.013 18.758C247.863 18.4967 247.789 18.1467 247.789 17.708C247.789 17.372 247.863 17.0687 248.013 16.798C248.162 16.518 248.367 16.2847 248.629 16.098C248.899 15.902 249.217 15.7527 249.581 15.65C249.954 15.5473 250.36 15.496 250.799 15.496C251.359 15.496 251.825 15.552 252.199 15.664C252.572 15.776 252.875 15.93 253.109 16.126C253.342 16.322 253.519 16.546 253.641 16.798C253.762 17.05 253.855 17.316 253.921 17.596L252.493 17.792C252.381 17.428 252.208 17.1573 251.975 16.98C251.751 16.8027 251.373 16.714 250.841 16.714C250.533 16.714 250.281 16.742 250.085 16.798C249.889 16.854 249.73 16.924 249.609 17.008C249.497 17.092 249.417 17.1853 249.371 17.288C249.333 17.3907 249.315 17.4933 249.315 17.596C249.315 17.7547 249.333 17.8853 249.371 17.988C249.408 18.0907 249.473 18.1747 249.567 18.24C249.669 18.3053 249.805 18.3613 249.973 18.408C250.141 18.4547 250.351 18.5013 250.603 18.548L251.513 18.702C251.998 18.786 252.399 18.8933 252.717 19.024C253.043 19.1547 253.3 19.318 253.487 19.514C253.683 19.7007 253.818 19.92 253.893 20.172C253.967 20.424 254.005 20.704 254.005 21.012C254.005 21.6747 253.753 22.2113 253.249 22.622C252.745 23.0233 251.979 23.224 250.953 23.224C250.533 23.224 250.127 23.182 249.735 23.098C249.352 23.0233 249.007 22.8927 248.699 22.706C248.391 22.5193 248.139 22.272 247.943 21.964C247.756 21.6467 247.649 21.25 247.621 20.774H249.147Z" fill="#241E12"/>
<rect x="296" width="97" height="36" rx="18" fill="white"/>
<path d="M318.681 15.72H320.235V16.728C320.534 16.3267 320.874 16.0233 321.257 15.818C321.649 15.6033 322.097 15.496 322.601 15.496C323.114 15.496 323.562 15.5893 323.945 15.776C324.328 15.9533 324.645 16.21 324.897 16.546C325.158 16.882 325.35 17.288 325.471 17.764C325.602 18.2307 325.667 18.7533 325.667 19.332C325.667 19.92 325.592 20.4567 325.443 20.942C325.294 21.418 325.079 21.8287 324.799 22.174C324.528 22.51 324.197 22.7713 323.805 22.958C323.413 23.1353 322.97 23.224 322.475 23.224C322.083 23.224 321.7 23.1493 321.327 23C320.954 22.8507 320.604 22.5753 320.277 22.174V25.716H318.681V15.72ZM320.263 19.486C320.263 19.962 320.314 20.3587 320.417 20.676C320.52 20.984 320.655 21.2313 320.823 21.418C321 21.6047 321.201 21.7353 321.425 21.81C321.658 21.8847 321.901 21.922 322.153 21.922C322.414 21.922 322.657 21.8753 322.881 21.782C323.105 21.6887 323.301 21.5393 323.469 21.334C323.637 21.1287 323.768 20.8627 323.861 20.536C323.954 20.2093 324.001 19.8127 324.001 19.346C324.001 18.87 323.95 18.4733 323.847 18.156C323.754 17.8293 323.623 17.568 323.455 17.372C323.296 17.1667 323.11 17.022 322.895 16.938C322.68 16.854 322.456 16.812 322.223 16.812C321.654 16.812 321.182 16.9987 320.809 17.372C320.445 17.7453 320.263 18.3333 320.263 19.136V19.486ZM330.449 21.936C331.121 21.936 331.611 21.7073 331.919 21.25C332.237 20.7833 332.395 20.1487 332.395 19.346C332.395 18.5527 332.237 17.9273 331.919 17.47C331.611 17.0127 331.121 16.784 330.449 16.784C329.777 16.784 329.283 17.0173 328.965 17.484C328.657 17.9413 328.503 18.562 328.503 19.346C328.503 20.1393 328.653 20.7693 328.951 21.236C329.259 21.7027 329.759 21.936 330.449 21.936ZM330.435 23.224C329.297 23.224 328.415 22.888 327.789 22.216C327.164 21.544 326.851 20.592 326.851 19.36C326.851 18.7813 326.931 18.254 327.089 17.778C327.257 17.302 327.495 16.896 327.803 16.56C328.111 16.224 328.489 15.9627 328.937 15.776C329.385 15.5893 329.894 15.496 330.463 15.496C331.042 15.496 331.555 15.594 332.003 15.79C332.451 15.9767 332.825 16.238 333.123 16.574C333.431 16.91 333.66 17.316 333.809 17.792C333.968 18.2587 334.047 18.772 334.047 19.332C334.047 19.9667 333.959 20.5267 333.781 21.012C333.604 21.488 333.352 21.894 333.025 22.23C332.708 22.5567 332.33 22.804 331.891 22.972C331.453 23.14 330.967 23.224 330.435 23.224ZM340.636 19.206C340.636 18.7487 340.585 18.366 340.482 18.058C340.389 17.7407 340.253 17.4933 340.076 17.316C339.908 17.1293 339.707 16.9987 339.474 16.924C339.25 16.84 339.012 16.798 338.76 16.798C338.172 16.798 337.715 17.008 337.388 17.428C337.071 17.848 336.912 18.4873 336.912 19.346C336.912 19.8127 336.954 20.2093 337.038 20.536C337.131 20.8627 337.257 21.1287 337.416 21.334C337.584 21.5393 337.775 21.6887 337.99 21.782C338.205 21.8753 338.438 21.922 338.69 21.922C339.269 21.922 339.735 21.7353 340.09 21.362C340.454 20.9793 340.636 20.3867 340.636 19.584V19.206ZM340.65 21.992C340.351 22.4027 340.011 22.7107 339.628 22.916C339.255 23.1213 338.816 23.224 338.312 23.224C337.789 23.224 337.337 23.1307 336.954 22.944C336.571 22.7573 336.254 22.496 336.002 22.16C335.75 21.8147 335.559 21.4087 335.428 20.942C335.307 20.466 335.246 19.9433 335.246 19.374C335.246 18.842 335.311 18.3473 335.442 17.89C335.573 17.4233 335.764 17.022 336.016 16.686C336.268 16.3407 336.576 16.0653 336.94 15.86C337.313 15.6547 337.743 15.5427 338.228 15.524C338.321 15.5147 338.415 15.5147 338.508 15.524C338.601 15.524 338.699 15.5287 338.802 15.538C339.129 15.5753 339.441 15.6687 339.74 15.818C340.048 15.958 340.342 16.196 340.622 16.532V13.004H342.204V23H340.65V21.992ZM350.441 20.452C350.348 21.32 350.035 22.0013 349.503 22.496C348.98 22.9813 348.229 23.224 347.249 23.224C346.661 23.224 346.148 23.1353 345.709 22.958C345.28 22.7713 344.92 22.51 344.631 22.174C344.342 21.838 344.127 21.4367 343.987 20.97C343.847 20.494 343.777 19.9667 343.777 19.388C343.777 18.8093 343.856 18.282 344.015 17.806C344.174 17.3207 344.402 16.91 344.701 16.574C345.009 16.2287 345.382 15.9627 345.821 15.776C346.26 15.5893 346.759 15.496 347.319 15.496C347.832 15.496 348.266 15.566 348.621 15.706C348.976 15.8367 349.27 16.0187 349.503 16.252C349.736 16.476 349.918 16.7373 350.049 17.036C350.18 17.3347 350.273 17.6473 350.329 17.974L348.747 18.212C348.672 17.8013 348.528 17.4607 348.313 17.19C348.108 16.9193 347.758 16.784 347.263 16.784C346.908 16.784 346.614 16.8587 346.381 17.008C346.148 17.1573 345.961 17.3533 345.821 17.596C345.681 17.8293 345.578 18.1 345.513 18.408C345.457 18.716 345.429 19.0287 345.429 19.346C345.429 19.71 345.462 20.0507 345.527 20.368C345.592 20.6853 345.695 20.9607 345.835 21.194C345.975 21.418 346.162 21.6 346.395 21.74C346.628 21.8707 346.913 21.936 347.249 21.936C347.734 21.936 348.103 21.81 348.355 21.558C348.607 21.2967 348.766 20.928 348.831 20.452H350.441ZM355.291 19.598C354.815 19.626 354.428 19.6773 354.129 19.752C353.84 19.8267 353.616 19.9247 353.457 20.046C353.299 20.158 353.191 20.2933 353.135 20.452C353.089 20.6013 353.065 20.7647 353.065 20.942C353.065 21.2593 353.163 21.5067 353.359 21.684C353.565 21.8613 353.863 21.95 354.255 21.95C354.955 21.95 355.473 21.7727 355.809 21.418C356.145 21.0633 356.313 20.5827 356.313 19.976V19.556L355.291 19.598ZM356.341 22.048C356.071 22.3747 355.739 22.6453 355.347 22.86C354.955 23.0747 354.479 23.182 353.919 23.182C353.574 23.182 353.252 23.1353 352.953 23.042C352.655 22.958 352.393 22.8273 352.169 22.65C351.955 22.4727 351.782 22.2487 351.651 21.978C351.53 21.698 351.469 21.3713 351.469 20.998C351.469 20.494 351.581 20.088 351.805 19.78C352.029 19.4627 352.319 19.2153 352.673 19.038C353.037 18.8607 353.443 18.7393 353.891 18.674C354.339 18.5993 354.787 18.5527 355.235 18.534L356.313 18.478V18.17C356.313 17.6193 356.178 17.2413 355.907 17.036C355.646 16.8213 355.301 16.714 354.871 16.714C354.377 16.714 354.008 16.798 353.765 16.966C353.532 17.134 353.378 17.3767 353.303 17.694L351.847 17.54C351.978 16.8307 352.3 16.3127 352.813 15.986C353.327 15.6593 354.031 15.496 354.927 15.496C355.506 15.496 355.982 15.5707 356.355 15.72C356.738 15.8693 357.041 16.0747 357.265 16.336C357.489 16.5973 357.643 16.91 357.727 17.274C357.821 17.6287 357.867 18.0207 357.867 18.45V23H356.341V22.048ZM360.707 20.774C360.735 21.0167 360.8 21.2173 360.903 21.376C361.006 21.5253 361.132 21.6467 361.281 21.74C361.44 21.8333 361.622 21.8987 361.827 21.936C362.032 21.964 362.252 21.978 362.485 21.978C363.017 21.978 363.4 21.8987 363.633 21.74C363.866 21.5813 363.983 21.348 363.983 21.04C363.983 20.7973 363.908 20.592 363.759 20.424C363.619 20.256 363.325 20.1347 362.877 20.06C362.298 19.9573 361.79 19.8593 361.351 19.766C360.912 19.6727 360.544 19.5467 360.245 19.388C359.946 19.22 359.722 19.01 359.573 18.758C359.424 18.4967 359.349 18.1467 359.349 17.708C359.349 17.372 359.424 17.0687 359.573 16.798C359.722 16.518 359.928 16.2847 360.189 16.098C360.46 15.902 360.777 15.7527 361.141 15.65C361.514 15.5473 361.92 15.496 362.359 15.496C362.919 15.496 363.386 15.552 363.759 15.664C364.132 15.776 364.436 15.93 364.669 16.126C364.902 16.322 365.08 16.546 365.201 16.798C365.322 17.05 365.416 17.316 365.481 17.596L364.053 17.792C363.941 17.428 363.768 17.1573 363.535 16.98C363.311 16.8027 362.933 16.714 362.401 16.714C362.093 16.714 361.841 16.742 361.645 16.798C361.449 16.854 361.29 16.924 361.169 17.008C361.057 17.092 360.978 17.1853 360.931 17.288C360.894 17.3907 360.875 17.4933 360.875 17.596C360.875 17.7547 360.894 17.8853 360.931 17.988C360.968 18.0907 361.034 18.1747 361.127 18.24C361.23 18.3053 361.365 18.3613 361.533 18.408C361.701 18.4547 361.911 18.5013 362.163 18.548L363.073 18.702C363.558 18.786 363.96 18.8933 364.277 19.024C364.604 19.1547 364.86 19.318 365.047 19.514C365.243 19.7007 365.378 19.92 365.453 20.172C365.528 20.424 365.565 20.704 365.565 21.012C365.565 21.6747 365.313 22.2113 364.809 22.622C364.305 23.0233 363.54 23.224 362.513 23.224C362.093 23.224 361.687 23.182 361.295 23.098C360.912 23.0233 360.567 22.8927 360.259 22.706C359.951 22.5193 359.699 22.272 359.503 21.964C359.316 21.6467 359.209 21.25 359.181 20.774H360.707ZM366.325 16.98V15.72H367.473V13.76H369.055V15.72H370.861V16.98H369.055V20.788C369.055 21.1613 369.13 21.432 369.279 21.6C369.438 21.768 369.666 21.852 369.965 21.852C370.124 21.852 370.273 21.8427 370.413 21.824C370.562 21.8053 370.707 21.7727 370.847 21.726L371.085 22.916C370.637 23.0653 370.152 23.14 369.629 23.14C368.826 23.14 368.266 22.9347 367.949 22.524C367.632 22.104 367.473 21.4787 367.473 20.648V16.98H366.325Z" fill="#241E12"/>
<rect x="58" y="51" width="131" height="36" rx="18" fill="white"/>
<path d="M78.8237 70.598C78.833 71.0647 78.889 71.4473 78.9917 71.746C79.1037 72.0447 79.2437 72.2827 79.4117 72.46C79.589 72.6373 79.7897 72.7587 80.0137 72.824C80.2377 72.8893 80.471 72.922 80.7137 72.922C80.975 72.922 81.2177 72.8753 81.4417 72.782C81.6657 72.6887 81.8617 72.544 82.0297 72.348C82.1977 72.1427 82.3284 71.8767 82.4217 71.55C82.515 71.2233 82.5617 70.822 82.5617 70.346C82.5617 69.8887 82.5104 69.5013 82.4077 69.184C82.3144 68.8573 82.1884 68.596 82.0297 68.4C81.871 68.1947 81.6797 68.0453 81.4557 67.952C81.241 67.8587 81.017 67.812 80.7837 67.812C80.4384 67.812 80.1397 67.868 79.8877 67.98C79.645 68.092 79.4444 68.2507 79.2857 68.456C79.127 68.6613 79.0104 68.9087 78.9357 69.198C78.861 69.478 78.8237 69.7907 78.8237 70.136V70.486V70.598ZM78.8377 64.004V67.672C79.127 67.2893 79.4584 67 79.8317 66.804C80.2144 66.5987 80.6577 66.496 81.1617 66.496C81.6844 66.496 82.137 66.5893 82.5197 66.776C82.9024 66.9627 83.2197 67.224 83.4717 67.56C83.7237 67.896 83.9104 68.302 84.0317 68.778C84.1624 69.2447 84.2277 69.7627 84.2277 70.332C84.2277 70.9293 84.153 71.4707 84.0037 71.956C83.8544 72.432 83.6397 72.838 83.3597 73.174C83.0797 73.51 82.7437 73.7713 82.3517 73.958C81.9597 74.1353 81.521 74.224 81.0357 74.224C80.597 74.224 80.191 74.14 79.8177 73.972C79.4444 73.804 79.1037 73.524 78.7957 73.132V74H77.2557V64.004H78.8377ZM89.0099 72.936C89.6819 72.936 90.1719 72.7073 90.4799 72.25C90.7972 71.7833 90.9559 71.1487 90.9559 70.346C90.9559 69.5527 90.7972 68.9273 90.4799 68.47C90.1719 68.0127 89.6819 67.784 89.0099 67.784C88.3379 67.784 87.8432 68.0173 87.5259 68.484C87.2179 68.9413 87.0639 69.562 87.0639 70.346C87.0639 71.1393 87.2132 71.7693 87.5119 72.236C87.8199 72.7027 88.3192 72.936 89.0099 72.936ZM88.9959 74.224C87.8572 74.224 86.9752 73.888 86.3499 73.216C85.7246 72.544 85.4119 71.592 85.4119 70.36C85.4119 69.7813 85.4912 69.254 85.6499 68.778C85.8179 68.302 86.0559 67.896 86.3639 67.56C86.6719 67.224 87.0499 66.9627 87.4979 66.776C87.9459 66.5893 88.4546 66.496 89.0239 66.496C89.6026 66.496 90.1159 66.594 90.5639 66.79C91.0119 66.9767 91.3852 67.238 91.6839 67.574C91.9919 67.91 92.2206 68.316 92.3699 68.792C92.5286 69.2587 92.6079 69.772 92.6079 70.332C92.6079 70.9667 92.5192 71.5267 92.3419 72.012C92.1646 72.488 91.9126 72.894 91.5859 73.23C91.2686 73.5567 90.8906 73.804 90.4519 73.972C90.0132 74.14 89.5279 74.224 88.9959 74.224ZM95.7352 66.72V67.784C96.0618 67.336 96.4258 67.0093 96.8272 66.804C97.2378 66.5987 97.6765 66.496 98.1432 66.496C99.7672 66.496 100.579 67.392 100.579 69.184V74H98.9832V69.436C98.9832 68.848 98.8758 68.4373 98.6612 68.204C98.4465 67.9613 98.1292 67.84 97.7092 67.84C97.4292 67.84 97.1678 67.8913 96.9252 67.994C96.6918 68.0873 96.4912 68.218 96.3232 68.386C96.1552 68.554 96.0198 68.75 95.9172 68.974C95.8238 69.1887 95.7772 69.4173 95.7772 69.66V74H94.1952V66.72H95.7352ZM103.856 66.72V71.298C103.856 71.9047 103.954 72.32 104.15 72.544C104.355 72.768 104.663 72.88 105.074 72.88C105.298 72.88 105.522 72.838 105.746 72.754C105.979 72.67 106.185 72.5487 106.362 72.39C106.539 72.2313 106.684 72.04 106.796 71.816C106.908 71.592 106.964 71.34 106.964 71.06V66.72H108.56V74H107.006V72.936C106.67 73.384 106.306 73.7107 105.914 73.916C105.522 74.1213 105.102 74.224 104.654 74.224C103.805 74.224 103.193 74.0047 102.82 73.566C102.456 73.1273 102.274 72.4553 102.274 71.55V66.72H103.856ZM111.461 71.774C111.489 72.0167 111.554 72.2173 111.657 72.376C111.76 72.5253 111.886 72.6467 112.035 72.74C112.194 72.8333 112.376 72.8987 112.581 72.936C112.786 72.964 113.006 72.978 113.239 72.978C113.771 72.978 114.154 72.8987 114.387 72.74C114.62 72.5813 114.737 72.348 114.737 72.04C114.737 71.7973 114.662 71.592 114.513 71.424C114.373 71.256 114.079 71.1347 113.631 71.06C113.052 70.9573 112.544 70.8593 112.105 70.766C111.666 70.6727 111.298 70.5467 110.999 70.388C110.7 70.22 110.476 70.01 110.327 69.758C110.178 69.4967 110.103 69.1467 110.103 68.708C110.103 68.372 110.178 68.0687 110.327 67.798C110.476 67.518 110.682 67.2847 110.943 67.098C111.214 66.902 111.531 66.7527 111.895 66.65C112.268 66.5473 112.674 66.496 113.113 66.496C113.673 66.496 114.14 66.552 114.513 66.664C114.886 66.776 115.19 66.93 115.423 67.126C115.656 67.322 115.834 67.546 115.955 67.798C116.076 68.05 116.17 68.316 116.235 68.596L114.807 68.792C114.695 68.428 114.522 68.1573 114.289 67.98C114.065 67.8027 113.687 67.714 113.155 67.714C112.847 67.714 112.595 67.742 112.399 67.798C112.203 67.854 112.044 67.924 111.923 68.008C111.811 68.092 111.732 68.1853 111.685 68.288C111.648 68.3907 111.629 68.4933 111.629 68.596C111.629 68.7547 111.648 68.8853 111.685 68.988C111.722 69.0907 111.788 69.1747 111.881 69.24C111.984 69.3053 112.119 69.3613 112.287 69.408C112.455 69.4547 112.665 69.5013 112.917 69.548L113.827 69.702C114.312 69.786 114.714 69.8933 115.031 70.024C115.358 70.1547 115.614 70.318 115.801 70.514C115.997 70.7007 116.132 70.92 116.207 71.172C116.282 71.424 116.319 71.704 116.319 72.012C116.319 72.6747 116.067 73.2113 115.563 73.622C115.059 74.0233 114.294 74.224 113.267 74.224C112.847 74.224 112.441 74.182 112.049 74.098C111.666 74.0233 111.321 73.8927 111.013 73.706C110.705 73.5193 110.453 73.272 110.257 72.964C110.07 72.6467 109.963 72.25 109.935 71.774H111.461ZM127.322 71.452C127.229 72.32 126.916 73.0013 126.384 73.496C125.861 73.9813 125.11 74.224 124.13 74.224C123.542 74.224 123.029 74.1353 122.59 73.958C122.161 73.7713 121.801 73.51 121.512 73.174C121.223 72.838 121.008 72.4367 120.868 71.97C120.728 71.494 120.658 70.9667 120.658 70.388C120.658 69.8093 120.737 69.282 120.896 68.806C121.055 68.3207 121.283 67.91 121.582 67.574C121.89 67.2287 122.263 66.9627 122.702 66.776C123.141 66.5893 123.64 66.496 124.2 66.496C124.713 66.496 125.147 66.566 125.502 66.706C125.857 66.8367 126.151 67.0187 126.384 67.252C126.617 67.476 126.799 67.7373 126.93 68.036C127.061 68.3347 127.154 68.6473 127.21 68.974L125.628 69.212C125.553 68.8013 125.409 68.4607 125.194 68.19C124.989 67.9193 124.639 67.784 124.144 67.784C123.789 67.784 123.495 67.8587 123.262 68.008C123.029 68.1573 122.842 68.3533 122.702 68.596C122.562 68.8293 122.459 69.1 122.394 69.408C122.338 69.716 122.31 70.0287 122.31 70.346C122.31 70.71 122.343 71.0507 122.408 71.368C122.473 71.6853 122.576 71.9607 122.716 72.194C122.856 72.418 123.043 72.6 123.276 72.74C123.509 72.8707 123.794 72.936 124.13 72.936C124.615 72.936 124.984 72.81 125.236 72.558C125.488 72.2967 125.647 71.928 125.712 71.452H127.322ZM131.953 72.936C132.625 72.936 133.115 72.7073 133.423 72.25C133.741 71.7833 133.899 71.1487 133.899 70.346C133.899 69.5527 133.741 68.9273 133.423 68.47C133.115 68.0127 132.625 67.784 131.953 67.784C131.281 67.784 130.787 68.0173 130.469 68.484C130.161 68.9413 130.007 69.562 130.007 70.346C130.007 71.1393 130.157 71.7693 130.455 72.236C130.763 72.7027 131.263 72.936 131.953 72.936ZM131.939 74.224C130.801 74.224 129.919 73.888 129.293 73.216C128.668 72.544 128.355 71.592 128.355 70.36C128.355 69.7813 128.435 69.254 128.593 68.778C128.761 68.302 128.999 67.896 129.307 67.56C129.615 67.224 129.993 66.9627 130.441 66.776C130.889 66.5893 131.398 66.496 131.967 66.496C132.546 66.496 133.059 66.594 133.507 66.79C133.955 66.9767 134.329 67.238 134.627 67.574C134.935 67.91 135.164 68.316 135.313 68.792C135.472 69.2587 135.551 69.772 135.551 70.332C135.551 70.9667 135.463 71.5267 135.285 72.012C135.108 72.488 134.856 72.894 134.529 73.23C134.212 73.5567 133.834 73.804 133.395 73.972C132.957 74.14 132.471 74.224 131.939 74.224ZM138.679 66.72V67.784C139.005 67.336 139.369 67.0093 139.771 66.804C140.181 66.5987 140.62 66.496 141.087 66.496C142.711 66.496 143.523 67.392 143.523 69.184V74H141.927V69.436C141.927 68.848 141.819 68.4373 141.605 68.204C141.39 67.9613 141.073 67.84 140.653 67.84C140.373 67.84 140.111 67.8913 139.869 67.994C139.635 68.0873 139.435 68.218 139.267 68.386C139.099 68.554 138.963 68.75 138.861 68.974C138.767 69.1887 138.721 69.4173 138.721 69.66V74H137.139V66.72H138.679ZM144.559 67.98V66.72H145.707V64.76H147.289V66.72H149.095V67.98H147.289V71.788C147.289 72.1613 147.364 72.432 147.513 72.6C147.672 72.768 147.901 72.852 148.199 72.852C148.358 72.852 148.507 72.8427 148.647 72.824C148.797 72.8053 148.941 72.7727 149.081 72.726L149.319 73.916C148.871 74.0653 148.386 74.14 147.863 74.14C147.061 74.14 146.501 73.9347 146.183 73.524C145.866 73.104 145.707 72.4787 145.707 71.648V67.98H144.559ZM156.691 71.844C156.56 72.6 156.238 73.188 155.725 73.608C155.211 74.0187 154.474 74.224 153.513 74.224C152.355 74.224 151.473 73.8927 150.867 73.23C150.269 72.558 149.971 71.6153 149.971 70.402C149.971 69.7767 150.055 69.2213 150.223 68.736C150.4 68.2507 150.643 67.8447 150.951 67.518C151.268 67.182 151.641 66.93 152.071 66.762C152.509 66.5847 152.99 66.496 153.513 66.496C154.073 66.496 154.558 66.5847 154.969 66.762C155.379 66.93 155.72 67.1727 155.991 67.49C156.261 67.798 156.462 68.1713 156.593 68.61C156.723 69.0393 156.789 69.52 156.789 70.052V70.752H151.567C151.585 71.4147 151.753 71.9513 152.071 72.362C152.388 72.7727 152.869 72.978 153.513 72.978C154.017 72.978 154.395 72.88 154.647 72.684C154.899 72.488 155.067 72.208 155.151 71.844H156.691ZM155.235 69.646C155.235 69.0487 155.095 68.5773 154.815 68.232C154.535 67.8867 154.087 67.714 153.471 67.714C152.883 67.714 152.435 67.8913 152.127 68.246C151.819 68.5913 151.641 69.058 151.595 69.646H155.235ZM159.884 66.72V67.784C160.21 67.336 160.574 67.0093 160.976 66.804C161.386 66.5987 161.825 66.496 162.292 66.496C163.916 66.496 164.728 67.392 164.728 69.184V74H163.132V69.436C163.132 68.848 163.024 68.4373 162.81 68.204C162.595 67.9613 162.278 67.84 161.858 67.84C161.578 67.84 161.316 67.8913 161.074 67.994C160.84 68.0873 160.64 68.218 160.472 68.386C160.304 68.554 160.168 68.75 160.066 68.974C159.972 69.1887 159.926 69.4173 159.926 69.66V74H158.344V66.72H159.884ZM165.764 67.98V66.72H166.912V64.76H168.494V66.72H170.3V67.98H168.494V71.788C168.494 72.1613 168.569 72.432 168.718 72.6C168.877 72.768 169.106 72.852 169.404 72.852C169.563 72.852 169.712 72.8427 169.852 72.824C170.002 72.8053 170.146 72.7727 170.286 72.726L170.524 73.916C170.076 74.0653 169.591 74.14 169.068 74.14C168.266 74.14 167.706 73.9347 167.388 73.524C167.071 73.104 166.912 72.4787 166.912 71.648V67.98H165.764Z" fill="#241E12"/>
<rect x="204" y="51" width="131" height="36" rx="18" fill="white"/>
<path d="M233.407 66.72H234.961V67.728C235.259 67.3267 235.6 67.0233 235.983 66.818C236.375 66.6033 236.823 66.496 237.327 66.496C237.84 66.496 238.288 66.5893 238.671 66.776C239.053 66.9533 239.371 67.21 239.623 67.546C239.884 67.882 240.075 68.288 240.197 68.764C240.327 69.2307 240.393 69.7533 240.393 70.332C240.393 70.92 240.318 71.4567 240.169 71.942C240.019 72.418 239.805 72.8287 239.525 73.174C239.254 73.51 238.923 73.7713 238.531 73.958C238.139 74.1353 237.695 74.224 237.201 74.224C236.809 74.224 236.426 74.1493 236.053 74C235.679 73.8507 235.329 73.5753 235.003 73.174V76.716H233.407V66.72ZM234.989 70.486C234.989 70.962 235.04 71.3587 235.143 71.676C235.245 71.984 235.381 72.2313 235.549 72.418C235.726 72.6047 235.927 72.7353 236.151 72.81C236.384 72.8847 236.627 72.922 236.879 72.922C237.14 72.922 237.383 72.8753 237.607 72.782C237.831 72.6887 238.027 72.5393 238.195 72.334C238.363 72.1287 238.493 71.8627 238.587 71.536C238.68 71.2093 238.727 70.8127 238.727 70.346C238.727 69.87 238.675 69.4733 238.573 69.156C238.479 68.8293 238.349 68.568 238.181 68.372C238.022 68.1667 237.835 68.022 237.621 67.938C237.406 67.854 237.182 67.812 236.949 67.812C236.379 67.812 235.908 67.9987 235.535 68.372C235.171 68.7453 234.989 69.3333 234.989 70.136V70.486ZM245.326 70.598C244.85 70.626 244.462 70.6773 244.164 70.752C243.874 70.8267 243.65 70.9247 243.492 71.046C243.333 71.158 243.226 71.2933 243.17 71.452C243.123 71.6013 243.1 71.7647 243.1 71.942C243.1 72.2593 243.198 72.5067 243.394 72.684C243.599 72.8613 243.898 72.95 244.29 72.95C244.99 72.95 245.508 72.7727 245.844 72.418C246.18 72.0633 246.348 71.5827 246.348 70.976V70.556L245.326 70.598ZM246.376 73.048C246.105 73.3747 245.774 73.6453 245.382 73.86C244.99 74.0747 244.514 74.182 243.954 74.182C243.608 74.182 243.286 74.1353 242.988 74.042C242.689 73.958 242.428 73.8273 242.204 73.65C241.989 73.4727 241.816 73.2487 241.686 72.978C241.564 72.698 241.504 72.3713 241.504 71.998C241.504 71.494 241.616 71.088 241.84 70.78C242.064 70.4627 242.353 70.2153 242.708 70.038C243.072 69.8607 243.478 69.7393 243.926 69.674C244.374 69.5993 244.822 69.5527 245.27 69.534L246.348 69.478V69.17C246.348 68.6193 246.212 68.2413 245.942 68.036C245.68 67.8213 245.335 67.714 244.906 67.714C244.411 67.714 244.042 67.798 243.8 67.966C243.566 68.134 243.412 68.3767 243.338 68.694L241.882 68.54C242.012 67.8307 242.334 67.3127 242.848 66.986C243.361 66.6593 244.066 66.496 244.962 66.496C245.54 66.496 246.016 66.5707 246.39 66.72C246.772 66.8693 247.076 67.0747 247.3 67.336C247.524 67.5973 247.678 67.91 247.762 68.274C247.855 68.6287 247.902 69.0207 247.902 69.45V74H246.376V73.048ZM248.935 67.98V66.72H250.083V64.76H251.665V66.72H253.471V67.98H251.665V71.788C251.665 72.1613 251.74 72.432 251.889 72.6C252.048 72.768 252.277 72.852 252.575 72.852C252.734 72.852 252.883 72.8427 253.023 72.824C253.173 72.8053 253.317 72.7727 253.457 72.726L253.695 73.916C253.247 74.0653 252.762 74.14 252.239 74.14C251.437 74.14 250.877 73.9347 250.559 73.524C250.242 73.104 250.083 72.4787 250.083 71.648V67.98H248.935ZM256.275 66.72V67.798C256.527 67.4153 256.831 67.1213 257.185 66.916C257.54 66.7107 257.918 66.608 258.319 66.608C258.478 66.608 258.609 66.6127 258.711 66.622C258.823 66.6313 258.931 66.6453 259.033 66.664L258.851 68.12C258.749 68.092 258.637 68.0733 258.515 68.064C258.394 68.0547 258.268 68.05 258.137 68.05C257.839 68.05 257.577 68.1013 257.353 68.204C257.129 68.2973 256.938 68.4233 256.779 68.582C256.63 68.7407 256.513 68.9227 256.429 69.128C256.355 69.324 256.317 69.5247 256.317 69.73V74H254.735V66.72H256.275ZM263.222 72.936C263.894 72.936 264.384 72.7073 264.692 72.25C265.009 71.7833 265.168 71.1487 265.168 70.346C265.168 69.5527 265.009 68.9273 264.692 68.47C264.384 68.0127 263.894 67.784 263.222 67.784C262.55 67.784 262.055 68.0173 261.738 68.484C261.43 68.9413 261.276 69.562 261.276 70.346C261.276 71.1393 261.425 71.7693 261.724 72.236C262.032 72.7027 262.531 72.936 263.222 72.936ZM263.208 74.224C262.069 74.224 261.187 73.888 260.562 73.216C259.936 72.544 259.624 71.592 259.624 70.36C259.624 69.7813 259.703 69.254 259.862 68.778C260.03 68.302 260.268 67.896 260.576 67.56C260.884 67.224 261.262 66.9627 261.71 66.776C262.158 66.5893 262.666 66.496 263.236 66.496C263.814 66.496 264.328 66.594 264.776 66.79C265.224 66.9767 265.597 67.238 265.896 67.574C266.204 67.91 266.432 68.316 266.582 68.792C266.74 69.2587 266.82 69.772 266.82 70.332C266.82 70.9667 266.731 71.5267 266.554 72.012C266.376 72.488 266.124 72.894 265.798 73.23C265.48 73.5567 265.102 73.804 264.664 73.972C264.225 74.14 263.74 74.224 263.208 74.224ZM269.947 66.72V67.784C270.274 67.336 270.638 67.0093 271.039 66.804C271.45 66.5987 271.888 66.496 272.355 66.496C273.979 66.496 274.791 67.392 274.791 69.184V74H273.195V69.436C273.195 68.848 273.088 68.4373 272.873 68.204C272.658 67.9613 272.341 67.84 271.921 67.84C271.641 67.84 271.38 67.8913 271.137 67.994C270.904 68.0873 270.703 68.218 270.535 68.386C270.367 68.554 270.232 68.75 270.129 68.974C270.036 69.1887 269.989 69.4173 269.989 69.66V74H268.407V66.72H269.947ZM283.005 72.936C283.677 72.936 284.167 72.7073 284.475 72.25C284.792 71.7833 284.951 71.1487 284.951 70.346C284.951 69.5527 284.792 68.9273 284.475 68.47C284.167 68.0127 283.677 67.784 283.005 67.784C282.333 67.784 281.838 68.0173 281.521 68.484C281.213 68.9413 281.059 69.562 281.059 70.346C281.059 71.1393 281.208 71.7693 281.507 72.236C281.815 72.7027 282.314 72.936 283.005 72.936ZM282.991 74.224C281.852 74.224 280.97 73.888 280.345 73.216C279.72 72.544 279.407 71.592 279.407 70.36C279.407 69.7813 279.486 69.254 279.645 68.778C279.813 68.302 280.051 67.896 280.359 67.56C280.667 67.224 281.045 66.9627 281.493 66.776C281.941 66.5893 282.45 66.496 283.019 66.496C283.598 66.496 284.111 66.594 284.559 66.79C285.007 66.9767 285.38 67.238 285.679 67.574C285.987 67.91 286.216 68.316 286.365 68.792C286.524 69.2587 286.603 69.772 286.603 70.332C286.603 70.9667 286.514 71.5267 286.337 72.012C286.16 72.488 285.908 72.894 285.581 73.23C285.264 73.5567 284.886 73.804 284.447 73.972C284.008 74.14 283.523 74.224 282.991 74.224ZM289.73 66.72V67.784C290.057 67.336 290.421 67.0093 290.822 66.804C291.233 66.5987 291.672 66.496 292.138 66.496C293.762 66.496 294.574 67.392 294.574 69.184V74H292.978V69.436C292.978 68.848 292.871 68.4373 292.656 68.204C292.442 67.9613 292.124 67.84 291.704 67.84C291.424 67.84 291.163 67.8913 290.92 67.994C290.687 68.0873 290.486 68.218 290.318 68.386C290.15 68.554 290.015 68.75 289.912 68.974C289.819 69.1887 289.772 69.4173 289.772 69.66V74H288.19V66.72H289.73ZM297.935 64.004V74H296.339V64.004H297.935ZM299.854 75.288C300.088 75.372 300.354 75.414 300.652 75.414C300.932 75.414 301.152 75.344 301.31 75.204C301.469 75.0733 301.618 74.8213 301.758 74.448L302.024 73.748L298.958 66.72H300.806L302.808 71.97L304.642 66.72H306.378L303.48 74.07C303.312 74.4993 303.154 74.8773 303.004 75.204C302.855 75.5307 302.687 75.806 302.5 76.03C302.314 76.254 302.09 76.422 301.828 76.534C301.576 76.6553 301.264 76.716 300.89 76.716C300.648 76.716 300.424 76.6973 300.218 76.66C300.013 76.632 299.794 76.5807 299.56 76.506L299.854 75.288Z" fill="#241E12"/>
</svg>
